<svg xmlns="http://www.w3.org/2000/svg" width="17.853" height="13.525" viewBox="0 0 17.853 13.525"><defs><style>.a{fill:none;}.b{fill:#5cbfab;}.c{fill:#fbb03b;}.d{fill:#f66;}</style></defs><g transform="translate(8.847 2.361)"><path class="a" d="M302.151,75.948l0,.015a.232.232,0,1,0,.107-.124l-.031-.033-.03.033A.344.344,0,0,0,302.151,75.948Z" transform="translate(-302.144 -75.806)"/></g><g transform="translate(1.798 7.211)"><path class="a" d="M288.046,85.511l.008-.005-.008,0Z" transform="translate(-288.046 -85.506)"/></g><g transform="translate(8.139 10.28)"><path class="a" d="M301.156,91.642l-.429.265.429.265Z" transform="translate(-300.727 -91.642)"/></g><g transform="translate(1.686 7.211)"><path class="b" d="M287.934,85.51l.008,0-.009,0a.847.847,0,0,0-.111.07l.112-.069Z" transform="translate(-287.822 -85.506)"/></g><g transform="translate(4.492 8.678)"><path class="c" d="M296.28,89.033a5.11,5.11,0,0,1-.616-.594l-2.232,1.382.788.488.216-.133a.717.717,0,0,1,.158-.1Z" transform="translate(-293.432 -88.439)"/></g><g transform="translate(2.481 6.617)"><path class="c" d="M292.84,85.114a5.078,5.078,0,0,1-.286-.8l-3.025,1.872-.091.056-.025.017.027-.015a4.151,4.151,0,0,0,.59.608l.12-.074.22-.137Z" transform="translate(-289.412 -84.316)"/></g><path class="c" d="M289.914,76.029l2.35-1.454v0l1.012-.626.038-.023.06-.064a.333.333,0,0,1-.076-.261l0-.015a.344.344,0,0,1,.042-.109l.03-.033a.333.333,0,0,1,.428-.079l.01.007,2.891,1.8.581.363a.731.731,0,1,0,.794-1.225l-.02-.013-3.621-2.261,0,0-.009-.006a5.136,5.136,0,0,0-4.382-.479,5.139,5.139,0,0,0-.53.22,1.5,1.5,0,0,1-1.091-.194l-.808-.5L284.449,76.2l.733.453.457.283a1.5,1.5,0,0,1,.46.785l.013.07c.02.107.047.214.077.319.017.064.038.127.058.189l.008,0Z" transform="translate(-284.449 -71.083)"/><g transform="translate(1.385)"><path class="d" d="M300.521,71.083l-.807.5a1.5,1.5,0,0,1-1.092.194,5.043,5.043,0,0,0-.53-.22,5.118,5.118,0,0,0-3.331-.012,5.086,5.086,0,0,1,1.052.491l.009.006,0,0,3.621,2.261.02.013a.731.731,0,1,1-.794,1.225l-.581-.363-2.891-1.8-.01-.007a.333.333,0,0,0-.428.079l.031.033a.33.33,0,0,1-.031.386l-.06.064-.038.023-1.012.626v0L291.3,76.029l-3.659,2.265-.008.005-.112.069a.754.754,0,0,0,.795,1.276l.025-.017.091-.056,3.025-1.872a5.078,5.078,0,0,0,.286.8l-2.471,1.53-.22.137a.755.755,0,1,0,1.013,1.119l.011.015.25-.155,2.232-1.382a5.109,5.109,0,0,0,.616.594L291.487,81.4a.718.718,0,0,0-.158.1.749.749,0,1,0,1.014,1.1l.022.029.179-.111,1.428-.884.428-.265v-.381l0-.073,0-.072a.753.753,0,0,1,1.5.065v2.273l.829-.513V79.8l0-.036,0-.036a.744.744,0,0,1,.206-.482.752.752,0,0,1,1.3.519V79.8h0v1.936l.829-.513V79.266l0-.07V79.1h.015a.751.751,0,0,1,1.466,0h.015v.117l0,.03,0,.016,0,.035v.953a4.251,4.251,0,0,0,1.455-2.465l.012-.07a1.507,1.507,0,0,1,.46-.785l.456-.283.733-.453Z" transform="translate(-287.219 -71.083)"/></g><g transform="translate(10.898 7.93)"><path class="c" d="M307.751,87.73h0l0-.036a.751.751,0,0,0-1.5-.037l0,.036,0,.035v2.862l.009-.006a.747.747,0,0,0,1.483-.008h.007v-.061l0-.033,0-.033V89.67l.006,0V87.73Z" transform="translate(-306.246 -86.942)"/></g><g transform="translate(6.711 9.072)"><path class="c" d="M301.231,89.99v-.015a.753.753,0,0,0-1.5-.065l0,.072,0,.073v.912L299.3,90.7l-1.428.884.788.487.216-.133.016-.009.836-.518v1.769l.039-.024a.747.747,0,0,0,1.454-.132h.006v-.061l0-.033,0-.033v-.646l0,0V89.99Z" transform="translate(-297.871 -89.228)"/></g><g transform="translate(13.232 7.431)"><path class="c" d="M312.419,86.7l0-.016,0-.031v-.117H312.4a.751.751,0,0,0-1.466,0h-.015v.092l0,.07v1.957l0,0v.122l0,.031,0,.032V88.9h.006a.747.747,0,0,0,1.483,0h.006v-.061l0-.033,0-.033V87.688l0,0v-.953Z" transform="translate(-310.914 -85.944)"/></g><g transform="translate(7.387 11.256)"><path class="d" d="M300.4,94.124v-.53l-.836.518-.017.01a.752.752,0,1,0,.852,1.239V94.124Z" transform="translate(-299.224 -93.594)"/></g></svg>