<svg id="icon_default_user" xmlns="http://www.w3.org/2000/svg" width="36.456" height="28.355" viewBox="0 0 36.456 28.355">
  <path id="Trazado_611" data-name="Trazado 611" d="M93.875,412.719H62.048a2.314,2.314,0,0,0-2.314,2.315v23.725a2.314,2.314,0,0,0,2.314,2.315H93.876a2.314,2.314,0,0,0,2.314-2.314h0V415.034a2.314,2.314,0,0,0-2.314-2.315ZM93.3,438.181H90.941c-.307-.845-2.4-1.412-5.5-2.54-3.345-1.221-4.416-2.251-4.416-4.456,0-1.318,1.018-.892,1.471-3.31.184-1.007,1.087-.017,1.263-2.314,0-.915-.494-1.14-.494-1.14s.249-1.354.348-2.4c.121-1.3-.746-4.653-5.4-4.653s-5.52,3.357-5.392,4.653c.1,1.043.347,2.4.347,2.4s-.494.226-.494,1.14c.168,2.3,1.071,1.307,1.263,2.314.446,2.419,1.47,1.991,1.47,3.31,0,2.2-1.071,3.235-4.421,4.456-3.1,1.128-5.19,1.7-5.5,2.54H62.625V415.615h30.67Z" transform="translate(-59.734 -412.719)" fill="#a1a1a1"/>
</svg>
