<svg id="logo_iusa_w" xmlns="http://www.w3.org/2000/svg" width="34.312" height="41.277" viewBox="0 0 34.312 41.277">
  <rect id="Rectángulo_545" data-name="Rectángulo 545" width="2.132" height="8.386" transform="translate(4.738 3.998)" fill="#fff"/>
  <g id="Grupo_863" data-name="Grupo 863" transform="translate(-93.415 -56.723)">
    <path id="Trazado_11" data-name="Trazado 11" d="M105.77,72.768a1.271,1.271,0,0,1-1.283-1.258c0-.032,0-.063,0-.1V65.361h-2.132v5.968a3.426,3.426,0,0,0,6.837,0V65.361h-2.132l-.014,6.026a1.261,1.261,0,0,1-1.28,1.381" fill="#fff"/>
    <path id="Trazado_12" data-name="Trazado 12" d="M115.876,71.67a7.507,7.507,0,0,0-2.441-.4c-2.717,0-3.424,1.669-3.424,2.825a2.668,2.668,0,0,0,1.9,2.522c1.235.514,2.089.814,2.089,1.564s-.7,1.145-1.491,1.145a5.5,5.5,0,0,1-2.367-.778v2a8.788,8.788,0,0,0,2.426.438c1.152,0,3.849-.1,3.849-3.049,0-1.133-.533-1.968-2.195-2.62-1.325-.521-1.748-.985-1.748-1.466,0-.619.746-1.016,1.28-1.016a7.346,7.346,0,0,1,2.122.621Z" fill="#fff"/>
    <path id="Trazado_13" data-name="Trazado 13" d="M118.928,82.941l1.04-3.748,1.025,3.748ZM121.136,77h-2.348l-3.212,9.9h2.233l.623-2.2h3.043l.626,2.2h2.246Z" fill="#fff"/>
    <path id="Trazado_14" data-name="Trazado 14" d="M115.813,93.929l-.674.629-.426-.622,1.227-1.071h.764v5.054h-.894Z" fill="#fff"/>
    <path id="Trazado_15" data-name="Trazado 15" d="M119.375,95.377c.426,0,.649-.376.649-.949,0-.593-.2-.955-.649-.955s-.649.362-.649.955c0,.55.188.949.649.949m-1.262,1.684a1.894,1.894,0,0,0,.83.217c.974,0,1.139-1.07,1.168-1.684l-.014-.015a.99.99,0,0,1-.922.507c-.707,0-1.342-.542-1.342-1.643a1.446,1.446,0,0,1,1.227-1.636,1.4,1.4,0,0,1,.251-.013c1.281,0,1.637,1.056,1.637,2.358,0,1.492-.411,2.837-1.954,2.837a2.469,2.469,0,0,1-.931-.173Z" fill="#fff"/>
    <path id="Trazado_16" data-name="Trazado 16" d="M121.316,97a2.235,2.235,0,0,0,1.016.254.836.836,0,0,0,.919-.744c0-.031,0-.063,0-.1,0-.587-.519-.76-.973-.76a2.516,2.516,0,0,0-.368.022v-.7h.151c.577,0,1.168-.135,1.168-.767,0-.463-.4-.674-.815-.674a2.373,2.373,0,0,0-.959.246L121.41,93a3.713,3.713,0,0,1,1.213-.209c.887,0,1.507.448,1.507,1.274a1.088,1.088,0,0,1-.973,1.172v.014c.461.13,1.053.318,1.053,1.223A1.558,1.558,0,0,1,122.618,98c-.051,0-.1,0-.153-.011a3.544,3.544,0,0,1-1.2-.217Z" fill="#fff"/>
    <path id="Trazado_17" data-name="Trazado 17" d="M126.154,95.377c.425,0,.649-.376.649-.949,0-.593-.2-.955-.649-.955s-.649.362-.649.955c0,.55.188.949.649.949m-1.261,1.684a1.89,1.89,0,0,0,.829.217c.974,0,1.14-1.07,1.169-1.684l-.014-.015a.992.992,0,0,1-.924.507c-.707,0-1.341-.542-1.341-1.643a1.446,1.446,0,0,1,1.227-1.636,1.4,1.4,0,0,1,.251-.013c1.281,0,1.637,1.056,1.637,2.358,0,1.492-.411,2.837-1.954,2.837a2.464,2.464,0,0,1-.93-.173Z" fill="#fff"/>
    <path id="Trazado_18" data-name="Trazado 18" d="M125.607,89.028h-9.89L95.52,68.76V58.836h9.891l20.2,20.267Zm2.094,2.1h.011v-12.9h0l-21.43-21.506H93.427v.011h-.012v12.9h0l21.43,21.5H127.7Z" fill="#fff"/>
    <path id="Trazado_19" data-name="Trazado 19" d="M105.772,72.778a1.27,1.27,0,0,1-1.283-1.257c0-.032,0-.063,0-.1V65.372h-2.127V71.34a3.426,3.426,0,0,0,6.837,0V65.372h-2.133l-.012,6.026a1.259,1.259,0,0,1-1.132,1.375,1.238,1.238,0,0,1-.149.006" fill="#fff"/>
    <path id="Trazado_20" data-name="Trazado 20" d="M115.878,71.682a7.531,7.531,0,0,0-2.44-.4c-2.718,0-3.424,1.669-3.424,2.825a2.669,2.669,0,0,0,1.9,2.523c1.234.513,2.089.814,2.089,1.562s-.7,1.146-1.491,1.146a5.5,5.5,0,0,1-2.367-.778v2a8.788,8.788,0,0,0,2.426.438c1.152,0,3.848-.1,3.848-3.049,0-1.133-.533-1.968-2.195-2.62-1.324-.521-1.748-.984-1.748-1.465,0-.62.746-1.017,1.28-1.017a7.322,7.322,0,0,1,2.123.621Z" fill="#fff"/>
  </g>
</svg>
