<svg xmlns="http://www.w3.org/2000/svg" width="30.37" height="37.995" viewBox="0 0 30.37 37.995"><defs><style>.a{fill:#39b54a;}.b{fill:#f5f5f5;}.c{fill:#cfd8dc;}</style></defs><g transform="translate(-269.63 -170.005)"><path class="a" d="M299.224,187.629c-1.45,10.625-11.984,18.253-14.047,19.629a.623.623,0,0,1-.7,0c-2.213-1.474-14.217-10.149-14.217-22.053A14.564,14.564,0,0,1,285.1,170.641c8.8.164,15.316,8.262,14.124,16.988Z"/><path class="b" d="M281.027,199.768l3.8,3.8,3.8-3.8Z"/><circle class="b" cx="12.031" cy="12.031" r="12.031" transform="translate(272.796 173.174)"/><path class="c" d="M284.827,173.174c-.321,0-.634.023-.95.048a12.019,12.019,0,0,1,0,23.965c.316.025.629.048.95.048a12.031,12.031,0,0,0,0-24.061Z"/><path d="M284.13,207.788a1.262,1.262,0,0,0,1.4,0c1.3-.871,12.79-8.832,14.323-20.073a15.824,15.824,0,0,0-3.655-12.432,14.8,14.8,0,0,0-11.087-5.275,15.2,15.2,0,0,0-15.482,15.2c0,12.546,13.013,21.592,14.5,22.583Zm-9.062-32.524a13.826,13.826,0,0,1,9.759-3.99h.263a13.552,13.552,0,0,1,10.147,4.832,14.563,14.563,0,0,1,3.36,11.438c-1.459,10.689-12.516,18.35-13.767,19.189-1.426-.949-13.934-9.641-13.934-21.528a13.822,13.822,0,0,1,4.172-9.941Z"/><path d="M288.626,199.135h-7.6a.633.633,0,0,0-.447,1.081l3.8,3.8a.633.633,0,0,0,.895,0l3.8-3.8a.633.633,0,0,0-.447-1.081Zm-3.8,3.537-2.271-2.271H287.1Z"/><path d="M297.491,185.205a12.664,12.664,0,1,0-12.664,12.664A12.664,12.664,0,0,0,297.491,185.205Zm-24.062,0a11.4,11.4,0,1,1,11.4,11.4A11.4,11.4,0,0,1,273.429,185.205Z"/></g><path d="M279.573,187.9v3.244a1.761,1.761,0,0,0,1.759,1.759h6.957a1.761,1.761,0,0,0,1.759-1.759V187.9a3.775,3.775,0,0,0-2.02-3.357,4.148,4.148,0,1,0-6.435,0A3.773,3.773,0,0,0,279.573,187.9Zm5.237-8.631a2.66,2.66,0,1,1-2.659,2.659A2.662,2.662,0,0,1,284.81,179.273Zm-3.747,8.631a2.289,2.289,0,0,1,1.888-2.265,4.133,4.133,0,0,0,3.719,0,2.289,2.289,0,0,1,1.888,2.265v3.244a.271.271,0,0,1-.27.27h-6.956a.271.271,0,0,1-.27-.27V187.9Z" transform="translate(-269.63 -170.005)"/></svg>