<svg xmlns="http://www.w3.org/2000/svg" width="30.37" height="37.995" viewBox="0 0 30.37 37.995"><defs><style>.a{fill:#f44335;}.b{fill:#f5f5f5;}.c{fill:#cfd8dc;}</style></defs><g transform="translate(-35.422 -170.005)"><path class="a" d="M65.016,187.629c-1.45,10.625-11.984,18.253-14.047,19.629a.623.623,0,0,1-.7,0c-2.213-1.474-14.217-10.149-14.217-22.053a14.564,14.564,0,0,1,14.837-14.564c8.805.164,15.316,8.262,14.124,16.988Z"/><path class="b" d="M46.82,199.768l3.8,3.8,3.8-3.8Z"/><circle class="b" cx="12.031" cy="12.031" r="12.031" transform="translate(38.588 173.174)"/><path class="c" d="M50.619,173.174c-.321,0-.633.023-.95.048a12.019,12.019,0,0,1,0,23.965c.317.025.629.048.95.048a12.031,12.031,0,0,0,0-24.061Z"/><path d="M49.922,207.788a1.262,1.262,0,0,0,1.4,0c1.3-.871,12.79-8.832,14.323-20.073a15.824,15.824,0,0,0-3.655-12.432A14.8,14.8,0,0,0,50.9,170.008a15.2,15.2,0,0,0-15.482,15.2c0,12.546,13.013,21.592,14.5,22.583ZM40.86,175.264a13.826,13.826,0,0,1,9.759-3.99h.263a13.552,13.552,0,0,1,10.147,4.832,14.563,14.563,0,0,1,3.36,11.438c-1.459,10.689-12.516,18.35-13.767,19.189-1.426-.949-13.934-9.641-13.934-21.528a13.822,13.822,0,0,1,4.172-9.941Z"/><path d="M54.418,199.135h-7.6a.633.633,0,0,0-.448,1.081l3.8,3.8a.633.633,0,0,0,.9,0l3.8-3.8a.633.633,0,0,0-.448-1.081Zm-3.8,3.537L48.348,200.4h4.541Z"/><path d="M63.283,185.205a12.664,12.664,0,1,0-12.664,12.664A12.664,12.664,0,0,0,63.283,185.205Zm-24.062,0a11.4,11.4,0,1,1,11.4,11.4A11.4,11.4,0,0,1,39.221,185.205Z"/></g><g transform="translate(-35.422 -170.005)"><path d="M57.618,181.781V180.14a.473.473,0,0,0-.474-.473H52.885v-1.42a.474.474,0,0,0-.474-.473H48.623a.474.474,0,0,0-.474.473v1.42H43.89a.473.473,0,0,0-.474.473v11.152a.474.474,0,0,0,.474.473H55.071a1.42,1.42,0,0,0,2.815-.268v-4.066a3.111,3.111,0,0,0-.268-5.65ZM49.1,178.72h2.842v.947H49.1Zm-4.733,1.893H56.671v.955a3.1,3.1,0,0,0-3.3,2.831H45.152a.79.79,0,0,1-.789-.789v-3Zm5.681,4.732h.946v.947h-.946Zm-5.681-.19a1.73,1.73,0,0,0,.789.19H49.1v1.42a.473.473,0,0,0,.473.473h1.894a.473.473,0,0,0,.473-.473v-1.42h1.5a3.1,3.1,0,0,0,1.612,2.086v3.388H44.363Zm12.1,6.815a.474.474,0,0,1-.474-.473v-1.891h.947V191.5A.473.473,0,0,1,56.466,191.97Zm.473-3.311h-.947v-.923a3.1,3.1,0,0,0,.947,0Zm-.473-1.831a2.161,2.161,0,1,1,2.161-2.161A2.161,2.161,0,0,1,56.466,186.828Z"/></g></svg>