<svg xmlns="http://www.w3.org/2000/svg" width="30.37" height="37.995" viewBox="0 0 30.37 37.995"><defs><style>.a{fill:#fcee21;}.b{fill:#f5f5f5;}.c{fill:#cfd8dc;}</style></defs><g transform="translate(-157.526 -170.005)"><path class="a" d="M187.12,187.629c-1.45,10.625-11.984,18.253-14.047,19.629a.623.623,0,0,1-.7,0c-2.213-1.474-14.217-10.149-14.217-22.053A14.564,14.564,0,0,1,173,170.641c8.8.164,15.316,8.262,14.124,16.988Z"/><path class="b" d="M168.924,199.768l3.8,3.8,3.8-3.8Z"/><circle class="b" cx="12.031" cy="12.031" r="12.031" transform="translate(160.692 173.174)"/><path class="c" d="M172.723,173.174c-.321,0-.634.023-.95.048a12.019,12.019,0,0,1,0,23.965c.316.025.629.048.95.048a12.031,12.031,0,0,0,0-24.061Z"/><path d="M172.026,207.788a1.262,1.262,0,0,0,1.4,0c1.3-.871,12.79-8.832,14.323-20.073a15.824,15.824,0,0,0-3.655-12.432,14.8,14.8,0,0,0-11.087-5.275,15.2,15.2,0,0,0-15.482,15.2c0,12.546,13.013,21.592,14.5,22.583Zm-9.062-32.524a13.826,13.826,0,0,1,9.759-3.99h.263a13.552,13.552,0,0,1,10.147,4.832,14.563,14.563,0,0,1,3.36,11.438c-1.459,10.689-12.516,18.35-13.767,19.189-1.426-.949-13.934-9.641-13.934-21.528a13.822,13.822,0,0,1,4.172-9.941Z"/><path d="M176.522,199.135h-7.6a.633.633,0,0,0-.448,1.081l3.8,3.8a.633.633,0,0,0,.9,0l3.8-3.8a.633.633,0,0,0-.448-1.081Zm-3.8,3.537-2.271-2.271h4.541Z"/><path d="M185.387,185.205a12.664,12.664,0,1,0-12.664,12.664A12.664,12.664,0,0,0,185.387,185.205Zm-24.062,0a11.4,11.4,0,1,1,11.4,11.4A11.4,11.4,0,0,1,161.325,185.205Z"/></g><g transform="translate(-157.526 -170.005)"><path d="M172.651,179.521a5.918,5.918,0,1,0,3.272,10.85.364.364,0,0,0-.4-.607,5.182,5.182,0,1,1,1.9-2.284c-.035.082-.073.165-.112.245a.364.364,0,1,0,.653.321c.046-.091.089-.186.129-.279a5.922,5.922,0,0,0-5.443-8.246Z"/><path d="M170.086,186.4v1.587a.862.862,0,0,0,.861.861h3.4a.861.861,0,0,0,.86-.861V186.4a1.846,1.846,0,0,0-.988-1.642,2.029,2.029,0,1,0-3.148,0A1.846,1.846,0,0,0,170.086,186.4Zm2.562-4.222a1.3,1.3,0,1,1-1.3,1.3A1.3,1.3,0,0,1,172.648,182.183Zm-1.833,4.222a1.121,1.121,0,0,1,.924-1.108,2.023,2.023,0,0,0,1.819,0,1.121,1.121,0,0,1,.924,1.108v1.587a.132.132,0,0,1-.132.132h-3.4a.132.132,0,0,1-.132-.132V186.4Z"/><path d="M181.508,185.221h-.562a8.3,8.3,0,0,0-7.93-8.071v-.606a.365.365,0,1,0-.729,0v.606a8.3,8.3,0,0,0-7.931,8.071h-.561a.364.364,0,1,0,0,.728h.574a8.3,8.3,0,0,0,7.918,7.78v.528a.365.365,0,0,0,.729,0v-.528a8.3,8.3,0,0,0,7.917-7.78h.575a.364.364,0,0,0,0-.728ZM173.016,193v-.6a.365.365,0,0,0-.729,0v.6a7.581,7.581,0,0,1-7.188-7.05h.547a.365.365,0,1,0,0-.729h-.561a7.579,7.579,0,0,1,7.2-7.342v.516a.365.365,0,1,0,.729,0v-.516a7.578,7.578,0,0,1,7.2,7.342h-.561a.364.364,0,0,0,0,.728h.547A7.58,7.58,0,0,1,173.016,193Z"/><path d="M176.977,188.793a.363.363,0,0,0-.474.2l-.005.011a.365.365,0,0,0,.2.474.371.371,0,0,0,.137.027.366.366,0,0,0,.338-.228l0-.011A.363.363,0,0,0,176.977,188.793Z"/></g></svg>